<?xml version="1.0" encoding="UTF-8"?>
<svg width="600px" height="600px" viewBox="0 0 600 600" version="1.1" xmlns="http://www.w3.org/2000/svg" xmlns:xlink="http://www.w3.org/1999/xlink">
    <title>Artboard</title>
    <g id="Artboard" stroke="none" stroke-width="1" fill="none" fill-rule="evenodd">
        <g id="green_check-(1)" transform="translate(75.000000, 75.000000)" fill-rule="nonzero">
            <polygon id="Fill-17" fill="#36D860" points="398.158163 342.418776 400.297959 365.736122 377.072449 368.720816 375.456122 392.074898 352.046939 391.294286 346.702041 414.088163 323.72449 409.560612 314.788776 431.206531 292.839796 423.051429 280.542857 442.98 260.182653 431.408571 244.855102 449.114694 226.616327 434.420816 208.643878 449.436122 192.994898 432.014694 172.855102 443.944286 160.2 424.236122 138.397959 432.786122 129.076531 411.30551 106.190816 416.246327 100.432653 393.553469 77.0418367 394.756531 75.0030612 371.43 51.7316327 368.867755 53.4581633 345.513673 30.8938776 339.250408 36.3397959 316.474898 15.0704082 306.675918 24.1071429 285.066735 4.68367347 271.989184 17.072449 252.106531 2.08812559e-13 236.08102 15.4102041 218.448367 1.12959184 199.88449 19.1755102 184.952755 8.05408163 164.341837 28.2581633 152.496735 20.5897959 130.368673 42.4377551 121.917857 38.4153061 98.847551 61.3285714 94.0095918 61.0714286 70.5930612 84.4622449 69.4937755 87.9520408 46.3389796 111.223469 49.005 118.386735 26.7107143 140.923469 33.0740816 151.567347 12.2188776 172.790816 22.1152041 186.64898 3.2372449 206.008163 16.4103061 222.722449 -2.61015699e-14 239.712245 16.1072449 258.832653 2.58979592 273.030612 21.2152041 294.070408 10.9395918 305.090816 31.6010204 327.517347 24.8335714 335.07551 46.9956122 358.291837 43.9126531 362.204082 67.0004082 385.613265 67.6809184 385.769388 91.097449 408.765306 95.5239796 405.165306 118.662245 427.15102 126.72 419.886735 148.981224 440.292857 160.461735 429.547959 181.270102 447.85102 195.874898 433.910204 214.692245 449.632653 232.040204 432.854082 248.377959 445.591837 268.03102 426.416327 281.457551 435.829592 302.901429 414.743878 313.076939 420.603061 335.751429"></polygon>
            <polyline id="Fill-18" fill="#FFFFFF" points="199.313265 310.725918 123.290816 234.749388 147.315306 210.706531 198.560204 261.923878 307.506122 146.110408 332.256122 169.397449 199.313265 310.725918"></polyline>
        </g>
    </g>
</svg>